PathFileType	3	(X/Y/Z)	D:\minhoCalibration\240510\subject1_KPNP\preferred\preferred15.trc
DataRate	CameraRate	NumFrames	NumMarkers	Units	OrigDataRate	OrigDataStartFrame	OrigNumFrames
200.0	200.0	15	10	mm	200.0	402	228	
Frame#	Time	Left_Ankle_Outer1			Left_Ankle_Inner1			Left_Knee_Outer1			Left_Knee_Inner1			Left_Wrist1			Right_Wrist1			Right_Knee_Inner1			Right_Knee_Outer1			Right_Ankle_Inner1			Right_Ankle_Outer1			
		X1	Y1	Z1	X2	Y2	Z2	X3	Y3	Z3	X4	Y4	Z4	X5	Y5	Z5	X6	Y6	Z6	X7	Y7	Z7	X8	Y8	Z8	X9	Y9	Z9	X10	Y10	Z10	
402	2	-477.46536	125.09465	-573.38428	-530.72852	126.24297	-555.96771	-455.31583	544.12506	-384.09128	-562.78833	510.66769	-410.78104	-440.2005	935.75696	-593.36255	-697.63538	959.89325	-834.88336	-750.70746	484.39441	-811.13855	-784.71497	532.76251	-916.02594	-616.2663	137.10089	-1059.7441	-690.98633	144.57991	-1144.3237
403	2.005	-474.40823	124.02947	-572.85736	-527.48346	125.7738	-556.98291	-455.13666	543.14178	-382.5715	-561.94379	509.65314	-411.6235	-437.51682	937.48712	-589.87793	-697.15942	960.80957	-828.11798	-757.35876	486.16595	-800.42194	-791.4613	534.6051	-905.73669	-618.44586	143.33009	-1054.0966	-692.3866	151.06476	-1138.9408
404	2.01	-470.83878	123.62823	-573.06714	-524.67267	125.19917	-558.04071	-454.66177	542.22845	-381.50992	-560.95361	508.78131	-412.73343	-434.78781	939.61102	-586.2984	-695.79645	961.65466	-820.92163	-764.16864	488.39529	-788.79913	-798.71027	536.84979	-894.45691	-621.44452	150.2999	-1047.7042	-694.68848	158.29144	-1132.7379
405	2.015	-468.21771	122.85526	-573.04291	-522.1416	124.68289	-558.98236	-453.91342	541.35706	-380.7742	-559.60455	507.98792	-414.00272	-432.1102	942.07642	-582.59631	-694.4491	962.16998	-815.94476	-771.20679	491.1571	-776.15552	-806.26147	539.48962	-882.23358	-625.26471	157.79735	-1040.5883	-697.90771	165.93672	-1125.6367
406	2.02	-466.02383	122.133	-572.97473	-520.07953	124.12962	-559.78864	-452.67044	540.58295	-380.43997	-557.90759	507.31754	-415.36636	-429.45175	944.88953	-578.83954	-693.12213	963.10046	-810.33936	-777.91339	494.01797	-763.48425	-814.02881	542.51685	-869.10449	-629.7536	165.66608	-1032.7207	-702.21039	173.99858	-1117.6757
407	2.025	-464.33786	121.31997	-573.02509	-518.26428	123.64185	-560.50745	-451.08139	539.94586	-380.55014	-555.92505	506.84018	-416.79932	-426.85623	948.03485	-574.98407	-691.78204	964.2677	-805.30273	-785.2049	498.71671	-749.0614	-821.66492	545.88837	-854.56689	-634.73743	174.15408	-1024.16	-707.32056	182.49538	-1108.9652
408	2.03	-462.82715	120.78218	-573.09814	-516.57709	123.08362	-561.64526	-449.06125	539.4632	-380.97809	-553.61914	506.56485	-418.15442	-424.16891	951.43762	-571.08923	-690.59509	965.60223	-798.54822	-791.86816	503.66849	-734.17633	-829.15033	550.03796	-839.96332	-639.67261	183.19565	-1015.1561	-712.60242	191.37767	-1099.851
409	2.035	-461.78198	120.1883	-573.07947	-515.552	122.76843	-562.01251	-446.77444	539.1842	-381.87421	-551.28168	506.99991	-419.01923	-421.48514	955.01117	-567.22491	-689.38965	967.57129	-793.26624	-797.68042	509.13138	-718.80548	-836.26379	554.54254	-824.19141	-644.44598	192.91528	-1005.5439	-717.66132	201.06969	-1090.0409
410	2.04	-460.90283	119.73817	-573.1554	-514.65637	122.68898	-562.26184	-443.66281	539.20306	-383.55331	-548.31097	507.23981	-420.43204	-418.59064	958.67084	-563.50641	-688.57794	969.57281	-787.5733	-803.04889	515.55707	-702.82812	-842.828	559.36169	-807.16071	-648.55908	203.43051	-995.77289	-722.40515	211.45578	-1079.5359
411	2.045	-460.13226	119.46838	-573.2207	-513.83539	122.66405	-562.51617	-440.6893	539.37073	-385.42148	-545.24847	508.11224	-421.39182	-415.48087	962.51776	-560.02545	-688.41992	972.32031	-781.83173	-807.36322	522.1366	-686.33337	-848.90839	564.77319	-790.11963	-652.03754	214.80655	-985.73755	-726.83777	222.22069	-1068.2321
412	2.05	-459.45755	119.13588	-573.28778	-513.02594	122.69812	-562.64233	-437.48199	539.82239	-387.82782	-541.91656	509.20224	-422.51141	-412.08514	966.46753	-556.87805	-688.39648	975.28284	-776.29352	-810.61078	528.75317	-669.26422	-854.53687	570.37677	-772.2818	-654.75842	227.15367	-975.65283	-731.03998	232.92499	-1056.3992
413	2.055	-458.53192	119.10815	-573.41498	-511.83051	122.56829	-562.61548	-434.03445	540.52216	-390.6604	-538.48364	510.46179	-423.81815	-408.37186	970.56683	-554.27008	-689.12939	979.02081	-768.06952	-812.82257	535.34839	-651.65674	-859.47888	576.20898	-754.00537	-656.4364	240.92024	-965.42834	-735.26154	243.89943	-1043.8152
414	2.06	-457.63251	119.12466	-573.58966	-511.04837	123.20191	-562.94788	-430.34061	541.43555	-393.9429	-534.70917	511.94174	-425.47992	-404.25357	974.65833	-552.26819	-689.86432	983.2027	-761.08276	-813.93286	541.76672	-633.52661	-863.92578	582.08911	-734.85248	-657.89008	255.48479	-955.14545	-739.77936	254.6356	-1029.8335
415	2.065	-456.76999	119.07736	-573.84155	-510.13834	123.5238	-563.08185	-426.2666	542.54907	-397.54514	-530.70569	513.52252	-427.71466	-399.66571	978.7326	-551.27643	-692.6994	988.32196	-750.0235	-814.02039	547.94232	-615.00867	-867.60687	587.96722	-715.21643	-658.71417	271.0882	-944.729	-744.15234	265.45276	-1015.6088
416	2.07	-455.95883	119.14685	-574.22357	-509.26776	124.06927	-563.15833	-421.86017	543.83447	-401.72705	-526.46991	515.28967	-430.37497	-394.51791	982.71777	-551.50635	-695.31641	993.84265	-739.30804	-813.1178	553.94397	-595.85474	-870.5271	593.8949	-694.87567	-658.94562	287.3927	-933.97882	-748.33533	276.69843	-1001.7925
